<?xml version="1.0" encoding="UTF-8" standalone="no"?>
<!DOCTYPE svg PUBLIC "-//W3C//DTD SVG 1.1//EN"
 "http://www.w3.org/Graphics/SVG/1.1/DTD/svg11.dtd">
<!-- Generated by graphviz version 2.43.0 (0)
 -->
<!-- Title: G Pages: 1 -->
<svg width="1242pt" height="606pt"
 viewBox="0.00 0.00 1242.00 606.00" xmlns="http://www.w3.org/2000/svg" xmlns:xlink="http://www.w3.org/1999/xlink">
<g id="graph0" class="graph" transform="scale(1 1) rotate(0) translate(4 602)">
<title>G</title>
<polygon fill="white" stroke="transparent" points="-4,4 -4,-602 1238,-602 1238,4 -4,4"/>
<g id="clust2" class="cluster">
<title>cluster_8eda4961</title>
<polygon fill="none" stroke="black" stroke-dasharray="1,5" points="926,-285 926,-399 1149,-399 1149,-285 926,-285"/>
<text text-anchor="middle" x="1037.5" y="-383.8" font-family="Times,serif" font-size="14.00">File: jani_model</text>
</g>
<g id="clust3" class="cluster">
<title>cluster_0431ce20</title>
<polygon fill="none" stroke="black" stroke-dasharray="1,5" points="934,-293 934,-368 1141,-368 1141,-293 934,-293"/>
<text text-anchor="middle" x="1037.5" y="-352.8" font-family="Times,serif" font-size="14.00">Class: JaniModel</text>
</g>
<g id="clust4" class="cluster">
<title>cluster_14e33554</title>
<polygon fill="none" stroke="black" stroke-dasharray="1,5" points="106,-407 106,-482 562,-482 562,-407 106,-407"/>
<text text-anchor="middle" x="334" y="-466.8" font-family="Times,serif" font-size="14.00">File: main</text>
</g>
<g id="clust5" class="cluster">
<title>cluster_6dd9483b</title>
<polygon fill="none" stroke="black" stroke-dasharray="1,5" points="887.5,-148 887.5,-277 1187.5,-277 1187.5,-148 887.5,-148"/>
<text text-anchor="middle" x="1037.5" y="-261.8" font-family="Times,serif" font-size="14.00">File: scxml_to_jani</text>
</g>
<g id="clust6" class="cluster">
<title>cluster_e700bafc</title>
<polygon fill="none" stroke="black" stroke-dasharray="1,5" points="932,-8 932,-140 1143,-140 1143,-8 932,-8"/>
<text text-anchor="middle" x="1037.5" y="-124.8" font-family="Times,serif" font-size="14.00">File: struct_definition</text>
</g>
<g id="clust7" class="cluster">
<title>cluster_bb5376bd</title>
<polygon fill="none" stroke="black" stroke-dasharray="1,5" points="940,-16 940,-109 1135,-109 1135,-16 940,-16"/>
<text text-anchor="middle" x="1037.5" y="-93.8" font-family="Times,serif" font-size="14.00">Class: StructDefinition</text>
</g>
<g id="clust8" class="cluster">
<title>cluster_1dad82a2</title>
<polygon fill="none" stroke="black" stroke-dasharray="1,5" points="582,-407 582,-590 1226,-590 1226,-407 582,-407"/>
<text text-anchor="middle" x="904" y="-574.8" font-family="Times,serif" font-size="14.00">File: top_level_interpreter</text>
</g>
<!-- Legend -->
<g id="node1" class="node">
<title>Legend</title>
<polygon fill="none" stroke="black" points="1.5,-378 1.5,-395 326.5,-395 326.5,-378 1.5,-378"/>
<text text-anchor="start" x="98" y="-382.8" font-family="Times,serif" font-size="14.00">Code2flow Legend</text>
<polygon fill="none" stroke="black" points="1.5,-290 1.5,-378 326.5,-378 326.5,-290 1.5,-290"/>
<polygon fill="none" stroke="black" points="3.5,-355 3.5,-376 274.5,-376 274.5,-355 3.5,-355"/>
<text text-anchor="start" x="79" y="-361.8" font-family="Times,serif" font-size="14.00">Regular function</text>
<polygon fill="#cccccc" stroke="transparent" points="274.5,-355 274.5,-376 324.5,-376 324.5,-355 274.5,-355"/>
<polygon fill="none" stroke="black" points="274.5,-355 274.5,-376 324.5,-376 324.5,-355 274.5,-355"/>
<polygon fill="none" stroke="black" points="3.5,-334 3.5,-355 274.5,-355 274.5,-334 3.5,-334"/>
<text text-anchor="start" x="17" y="-340.8" font-family="Times,serif" font-size="14.00">Trunk function (nothing calls this)</text>
<polygon fill="#966f33" stroke="transparent" points="274.5,-334 274.5,-355 324.5,-355 324.5,-334 274.5,-334"/>
<polygon fill="none" stroke="black" points="274.5,-334 274.5,-355 324.5,-355 324.5,-334 274.5,-334"/>
<polygon fill="none" stroke="black" points="3.5,-313 3.5,-334 274.5,-334 274.5,-313 3.5,-313"/>
<text text-anchor="start" x="6.5" y="-319.8" font-family="Times,serif" font-size="14.00">Leaf function (this calls nothing else)</text>
<polygon fill="#6db33f" stroke="transparent" points="274.5,-313 274.5,-334 324.5,-334 324.5,-313 274.5,-313"/>
<polygon fill="none" stroke="black" points="274.5,-313 274.5,-334 324.5,-334 324.5,-313 274.5,-313"/>
<polygon fill="none" stroke="black" points="3.5,-292 3.5,-313 274.5,-313 274.5,-292 3.5,-292"/>
<text text-anchor="start" x="92.5" y="-298.8" font-family="Times,serif" font-size="14.00">Function call</text>
<polygon fill="none" stroke="black" points="274.5,-292 274.5,-313 324.5,-313 324.5,-292 274.5,-292"/>
<text text-anchor="start" x="293" y="-298.8" font-family="Times,serif" font-size="14.00">→</text>
<polygon fill="none" stroke="black" points="2.5,-291 2.5,-377 325.5,-377 325.5,-291 2.5,-291"/>
<polygon fill="none" stroke="black" points="0,-289.5 0,-396.5 327,-396.5 327,-289.5 0,-289.5"/>
</g>
<!-- node_70803d0b -->
<g id="node2" class="node">
<title>node_70803d0b</title>
<path fill="#6db33f" stroke="black" d="M1121,-337C1121,-337 954,-337 954,-337 948,-337 942,-331 942,-325 942,-325 942,-313 942,-313 942,-307 948,-301 954,-301 954,-301 1121,-301 1121,-301 1127,-301 1133,-307 1133,-313 1133,-313 1133,-325 1133,-325 1133,-331 1127,-337 1121,-337"/>
<text text-anchor="middle" x="1037.5" y="-315.3" font-family="Times,serif" font-size="14.00">176: add_jani_property()</text>
</g>
<!-- node_256e0f1c -->
<g id="node3" class="node">
<title>node_256e0f1c</title>
<path fill="#966f33" stroke="black" d="M201,-451C201,-451 126,-451 126,-451 120,-451 114,-445 114,-439 114,-439 114,-427 114,-427 114,-421 120,-415 126,-415 126,-415 201,-415 201,-415 207,-415 213,-421 213,-427 213,-427 213,-439 213,-439 213,-445 207,-451 201,-451"/>
<text text-anchor="middle" x="163.5" y="-429.3" font-family="Times,serif" font-size="14.00">0: (global)()</text>
</g>
<!-- node_a1efae00 -->
<g id="node4" class="node">
<title>node_a1efae00</title>
<path fill="#cccccc" stroke="black" d="M542,-451C542,-451 375,-451 375,-451 369,-451 363,-445 363,-439 363,-439 363,-427 363,-427 363,-421 369,-415 375,-415 375,-415 542,-415 542,-415 548,-415 554,-421 554,-427 554,-427 554,-439 554,-439 554,-445 548,-451 542,-451"/>
<text text-anchor="middle" x="458.5" y="-429.3" font-family="Times,serif" font-size="14.00">59: main_scxml_to_jani()</text>
</g>
<!-- node_256e0f1c&#45;&gt;node_a1efae00 -->
<g id="edge1" class="edge">
<title>node_256e0f1c&#45;&gt;node_a1efae00</title>
<path fill="none" stroke="#f0e442" stroke-width="2" d="M213.21,-433C213.21,-433 352.89,-433 352.89,-433"/>
<polygon fill="#f0e442" stroke="#f0e442" stroke-width="2" points="352.89,-436.5 362.89,-433 352.89,-429.5 352.89,-436.5"/>
</g>
<!-- node_fefaa4f0 -->
<g id="node10" class="node">
<title>node_fefaa4f0</title>
<path fill="#cccccc" stroke="black" d="M809,-451C809,-451 602,-451 602,-451 596,-451 590,-445 590,-439 590,-439 590,-427 590,-427 590,-421 596,-415 602,-415 602,-415 809,-415 809,-415 815,-415 821,-421 821,-427 821,-427 821,-439 821,-439 821,-445 815,-451 809,-451"/>
<text text-anchor="middle" x="705.5" y="-429.3" font-family="Times,serif" font-size="14.00">286: interpret_top_level_xml()</text>
</g>
<!-- node_a1efae00&#45;&gt;node_fefaa4f0 -->
<g id="edge2" class="edge">
<title>node_a1efae00&#45;&gt;node_fefaa4f0</title>
<path fill="none" stroke="#000000" stroke-width="2" d="M554.35,-433C554.35,-433 579.93,-433 579.93,-433"/>
<polygon fill="#000000" stroke="#000000" stroke-width="2" points="579.93,-436.5 589.93,-433 579.93,-429.5 579.93,-436.5"/>
</g>
<!-- node_36290646 -->
<g id="node5" class="node">
<title>node_36290646</title>
<path fill="#cccccc" stroke="black" d="M1167.5,-246C1167.5,-246 907.5,-246 907.5,-246 901.5,-246 895.5,-240 895.5,-234 895.5,-234 895.5,-222 895.5,-222 895.5,-216 901.5,-210 907.5,-210 907.5,-210 1167.5,-210 1167.5,-210 1173.5,-210 1179.5,-216 1179.5,-222 1179.5,-222 1179.5,-234 1179.5,-234 1179.5,-240 1173.5,-246 1167.5,-246"/>
<text text-anchor="middle" x="1037.5" y="-224.3" font-family="Times,serif" font-size="14.00">72: convert_multiple_scxmls_to_jani()</text>
</g>
<!-- node_d3ef4dfe -->
<g id="node6" class="node">
<title>node_d3ef4dfe</title>
<path fill="#cccccc" stroke="black" d="M1158.5,-192C1158.5,-192 916.5,-192 916.5,-192 910.5,-192 904.5,-186 904.5,-180 904.5,-180 904.5,-168 904.5,-168 904.5,-162 910.5,-156 916.5,-156 916.5,-156 1158.5,-156 1158.5,-156 1164.5,-156 1170.5,-162 1170.5,-168 1170.5,-168 1170.5,-180 1170.5,-180 1170.5,-186 1164.5,-192 1158.5,-192"/>
<text text-anchor="middle" x="1037.5" y="-170.3" font-family="Times,serif" font-size="14.00">108: preprocess_jani_expressions()</text>
</g>
<!-- node_77ff91b2 -->
<g id="node7" class="node">
<title>node_77ff91b2</title>
<path fill="#cccccc" stroke="black" d="M1115,-60C1115,-60 960,-60 960,-60 954,-60 948,-54 948,-48 948,-48 948,-36 948,-36 948,-30 954,-24 960,-24 960,-24 1115,-24 1115,-24 1121,-24 1127,-30 1127,-36 1127,-36 1127,-48 1127,-48 1127,-54 1121,-60 1115,-60"/>
<text text-anchor="middle" x="1037.5" y="-38.3" font-family="Times,serif" font-size="14.00">84: expand_members()</text>
</g>
<!-- node_77ff91b2&#45;&gt;node_77ff91b2 -->
<g id="edge3" class="edge">
<title>node_77ff91b2&#45;&gt;node_77ff91b2</title>
<path fill="none" stroke="#56b4e9" stroke-width="2" d="M947.78,-36C935.5,-36 927,-36 927,-36 927,-36 927,-6 927,-6 927,-6 1149,-6 1149,-6 1149,-6 1149,-42 1149,-42 1149,-42 1137.24,-42 1137.24,-42"/>
<polygon fill="#56b4e9" stroke="#56b4e9" stroke-width="2" points="1137.24,-38.5 1127.24,-42 1137.24,-45.5 1137.24,-38.5"/>
</g>
<!-- node_9139c69f -->
<g id="node8" class="node">
<title>node_9139c69f</title>
<path fill="#cccccc" stroke="black" d="M1154,-451C1154,-451 921,-451 921,-451 915,-451 909,-445 909,-439 909,-439 909,-427 909,-427 909,-421 915,-415 921,-415 921,-415 1154,-415 1154,-415 1160,-415 1166,-421 1166,-427 1166,-427 1166,-439 1166,-439 1166,-445 1160,-451 1154,-451"/>
<text text-anchor="middle" x="1037.5" y="-429.3" font-family="Times,serif" font-size="14.00">259: export_plain_scxml_models()</text>
</g>
<!-- node_c10f528f -->
<g id="node9" class="node">
<title>node_c10f528f</title>
<path fill="#cccccc" stroke="black" d="M1206,-505C1206,-505 869,-505 869,-505 863,-505 857,-499 857,-493 857,-493 857,-481 857,-481 857,-475 863,-469 869,-469 869,-469 1206,-469 1206,-469 1212,-469 1218,-475 1218,-481 1218,-481 1218,-493 1218,-493 1218,-499 1212,-505 1206,-505"/>
<text text-anchor="middle" x="1037.5" y="-483.3" font-family="Times,serif" font-size="14.00">193: generate_plain_scxml_models_and_timers()</text>
</g>
<!-- node_fefaa4f0&#45;&gt;node_70803d0b -->
<g id="edge4" class="edge">
<title>node_fefaa4f0&#45;&gt;node_70803d0b</title>
<path fill="none" stroke="#000000" stroke-width="2" d="M764,-414.94C764,-382.79 764,-319 764,-319 764,-319 931.84,-319 931.84,-319"/>
<polygon fill="#000000" stroke="#000000" stroke-width="2" points="931.84,-322.5 941.84,-319 931.84,-315.5 931.84,-322.5"/>
</g>
<!-- node_fefaa4f0&#45;&gt;node_36290646 -->
<g id="edge5" class="edge">
<title>node_fefaa4f0&#45;&gt;node_36290646</title>
<path fill="none" stroke="#000000" stroke-width="2" d="M821.24,-424C864.35,-424 903,-424 903,-424 903,-424 903,-256.09 903,-256.09"/>
<polygon fill="#000000" stroke="#000000" stroke-width="2" points="906.5,-256.09 903,-246.09 899.5,-256.09 906.5,-256.09"/>
</g>
<!-- node_fefaa4f0&#45;&gt;node_d3ef4dfe -->
<g id="edge6" class="edge">
<title>node_fefaa4f0&#45;&gt;node_d3ef4dfe</title>
<path fill="none" stroke="#000000" stroke-width="2" d="M706,-414.79C706,-355.83 706,-174 706,-174 706,-174 894.1,-174 894.1,-174"/>
<polygon fill="#000000" stroke="#000000" stroke-width="2" points="894.1,-177.5 904.1,-174 894.1,-170.5 894.1,-177.5"/>
</g>
<!-- node_fefaa4f0&#45;&gt;node_77ff91b2 -->
<g id="edge7" class="edge">
<title>node_fefaa4f0&#45;&gt;node_77ff91b2</title>
<path fill="none" stroke="#000000" stroke-width="2" d="M648,-414.95C648,-338.83 648,-48 648,-48 648,-48 937.65,-48 937.65,-48"/>
<polygon fill="#000000" stroke="#000000" stroke-width="2" points="937.65,-51.5 947.65,-48 937.65,-44.5 937.65,-51.5"/>
</g>
<!-- node_fefaa4f0&#45;&gt;node_9139c69f -->
<g id="edge8" class="edge">
<title>node_fefaa4f0&#45;&gt;node_9139c69f</title>
<path fill="none" stroke="#000000" stroke-width="2" d="M821.15,-433C821.15,-433 898.94,-433 898.94,-433"/>
<polygon fill="#000000" stroke="#000000" stroke-width="2" points="898.94,-436.5 908.94,-433 898.94,-429.5 898.94,-436.5"/>
</g>
<!-- node_fefaa4f0&#45;&gt;node_c10f528f -->
<g id="edge9" class="edge">
<title>node_fefaa4f0&#45;&gt;node_c10f528f</title>
<path fill="none" stroke="#000000" stroke-width="2" d="M821.32,-442C852.12,-442 877,-442 877,-442 877,-442 877,-458.96 877,-458.96"/>
<polygon fill="#000000" stroke="#000000" stroke-width="2" points="873.5,-458.96 877,-468.96 880.5,-458.96 873.5,-458.96"/>
</g>
<!-- node_faeff58b -->
<g id="node11" class="node">
<title>node_faeff58b</title>
<path fill="#cccccc" stroke="black" d="M1110,-559C1110,-559 965,-559 965,-559 959,-559 953,-553 953,-547 953,-547 953,-535 953,-535 953,-529 959,-523 965,-523 965,-523 1110,-523 1110,-523 1116,-523 1122,-529 1122,-535 1122,-535 1122,-547 1122,-547 1122,-553 1116,-559 1110,-559"/>
<text text-anchor="middle" x="1037.5" y="-537.3" font-family="Times,serif" font-size="14.00">97: parse_main_xml()</text>
</g>
<!-- node_fefaa4f0&#45;&gt;node_faeff58b -->
<g id="edge10" class="edge">
<title>node_fefaa4f0&#45;&gt;node_faeff58b</title>
<path fill="none" stroke="#000000" stroke-width="2" d="M706,-451.32C706,-482.13 706,-541 706,-541 706,-541 942.99,-541 942.99,-541"/>
<polygon fill="#000000" stroke="#000000" stroke-width="2" points="942.99,-544.5 952.99,-541 942.99,-537.5 942.99,-544.5"/>
</g>
</g>
</svg>
